<svg width="75" height="75" viewBox="0 0 75 75" fill="none" xmlns="http://www.w3.org/2000/svg">
<path d="M36.5192 0C16.3502 0 0 16.2043 0 36.1933H36.5192V0Z" fill="white"/>
<path d="M75 36.8423C75 16.4949 58.3553 0 37.8231 0L37.8231 36.8423L75 36.8423Z" fill="white"/>
<path d="M0 38.1577C0 58.5051 16.3502 75 36.5192 75L36.5192 38.1577L0 38.1577Z" fill="white"/>
<path d="M37.8261 75C58.3567 75 75 58.5052 75 38.1579L37.8261 38.1579L37.8261 75Z" fill="white"/>
<path d="M74.4966 38.6579C74.2289 58.3297 58.1862 74.2338 38.3261 74.4967L38.3261 38.6579L74.4966 38.6579Z" fill="#FA543C" fill-opacity="0.6" stroke="black"/>
<path d="M0.503339 36.3421C0.766294 16.6653 16.5268 0.771053 36.0217 0.50343V36.3421H0.503339Z" fill="#FA543C" stroke="black"/>
<path d="M36.0217 74.4966C16.5268 74.2289 0.766294 58.3347 0.503339 38.6579H36.0217V74.4966Z" fill="#FA543C" fill-opacity="0.4" stroke="black"/>
<path d="M38.3261 0.503308C58.1862 0.766245 74.2289 16.6703 74.4966 36.3421L38.3261 36.3421L38.3261 0.503308Z" fill="#FA543C" fill-opacity="0.8" stroke="black"/>
<g clip-path="url(#clip0_44_1954)">
<path d="M54.4565 21.9573V20.5592C54.9049 20.3673 55.3636 20.2234 55.8326 20.1275C56.3016 20.0315 56.794 19.9836 57.3098 19.9836C57.663 19.9836 58.0095 20.011 58.3492 20.0658C58.6888 20.1206 59.0217 20.1892 59.3478 20.2714V21.5872C59.0217 21.4638 58.6921 21.3712 58.3589 21.3092C58.0258 21.2473 57.6761 21.2166 57.3098 21.2171C56.7935 21.2171 56.2975 21.2824 55.822 21.4129C55.3464 21.5433 54.8913 21.7248 54.4565 21.9573ZM54.4565 26.4803V25.0823C54.9049 24.8904 55.3636 24.7465 55.8326 24.6505C56.3016 24.5546 56.794 24.5066 57.3098 24.5066C57.663 24.5066 58.0095 24.534 58.3492 24.5888C58.6888 24.6437 59.0217 24.7122 59.3478 24.7944V26.1102C59.0217 25.9869 58.6921 25.8942 58.3589 25.8323C58.0258 25.7703 57.6761 25.7396 57.3098 25.7402C56.7935 25.7402 56.2975 25.8018 55.822 25.9252C55.3464 26.0485 54.8913 26.2336 54.4565 26.4803ZM54.4565 24.2188V22.8207C54.9049 22.6289 55.3636 22.4849 55.8326 22.389C56.3016 22.2931 56.794 22.2451 57.3098 22.2451C57.663 22.2451 58.0095 22.2725 58.3492 22.3273C58.6888 22.3821 59.0217 22.4507 59.3478 22.5329V23.8487C59.0217 23.7254 58.6921 23.6327 58.3589 23.5707C58.0258 23.5088 57.6761 23.4781 57.3098 23.4786C56.7935 23.4786 56.2975 23.5439 55.822 23.6744C55.3464 23.8048 54.8913 23.9863 54.4565 24.2188ZM48.3424 26.9737C48.981 26.9737 49.6027 27.0458 50.2076 27.19C50.8125 27.3342 51.4136 27.5499 52.0108 27.8372V19.7369C51.4538 19.4079 50.8628 19.1612 50.2378 18.9967C49.6128 18.8323 48.981 18.75 48.3424 18.75C47.8532 18.75 47.3674 18.798 46.8848 18.8939C46.4022 18.9899 45.9369 19.1338 45.4891 19.3257V27.4671C45.9647 27.3027 46.4369 27.1793 46.906 27.0971C47.375 27.0148 47.8538 26.9737 48.3424 26.9737ZM53.6413 27.8372C54.2391 27.5494 54.8402 27.3334 55.4445 27.1892C56.0489 27.045 56.6706 26.9732 57.3098 26.9737C57.7989 26.9737 58.278 27.0148 58.747 27.0971C59.216 27.1793 59.688 27.3027 60.163 27.4671V19.3257C59.7147 19.1338 59.2492 18.9899 58.7666 18.8939C58.2839 18.798 57.7983 18.75 57.3098 18.75C56.6712 18.75 56.0394 18.8323 55.4144 18.9967C54.7894 19.1612 54.1983 19.4079 53.6413 19.7369V27.8372ZM52.8261 30.2632C52.1739 29.7423 51.4674 29.338 50.7065 29.0502C49.9456 28.7624 49.1576 28.6184 48.3424 28.6184C47.6223 28.6184 46.8682 28.7555 46.0801 29.0296C45.2921 29.3038 44.5516 29.7286 43.8587 30.3043V18.38C44.4565 17.9688 45.1598 17.6535 45.9685 17.4342C46.7772 17.2149 47.5685 17.1053 48.3424 17.1053C49.1304 17.1053 49.9016 17.2081 50.656 17.4137C51.4103 17.6193 52.1337 17.9277 52.8261 18.3388C53.519 17.9277 54.2426 17.6193 54.997 17.4137C55.7513 17.2081 56.5223 17.1053 57.3098 17.1053C58.0842 17.1053 58.8758 17.2149 59.6845 17.4342C60.4932 17.6535 61.1962 17.9688 61.7935 18.38V30.3043C61.1141 29.7286 60.3769 29.3038 59.5818 29.0296C58.7867 28.7555 58.0293 28.6184 57.3098 28.6184C56.4945 28.6184 55.7065 28.7624 54.9456 29.0502C54.1848 29.338 53.4782 29.7423 52.8261 30.2632Z" fill="black"/>
</g>
<path d="M26.8696 45L28.0272 46.1677L23.3642 50.8635C24.2364 52.1299 24.3587 53.6513 23.625 54.6381L18.4729 49.4408C19.4511 48.7006 20.9593 48.824 22.2147 49.7039L26.8696 45ZM15.9212 57.2121C14.2826 55.5592 13.2799 53.5855 13.0027 51.7434L16.981 50.0246L23.0462 56.1431L21.3424 60.1562C19.5163 59.8766 17.5598 58.8651 15.9212 57.2121Z" fill="black"/>
<g clip-path="url(#clip1_44_1954)">
<path fill-rule="evenodd" clip-rule="evenodd" d="M43.1285 53.8278C43.3966 54.2962 43.8382 54.638 44.3561 54.778C44.874 54.918 45.4259 54.8447 45.8902 54.5743C46.3546 54.3038 46.6934 53.8584 46.8322 53.3359C46.971 52.8134 46.8984 52.2568 46.6303 51.7883C46.3622 51.3199 45.9206 50.9781 45.4026 50.8381C44.8847 50.6981 44.3329 50.7714 43.8685 51.0418C43.4041 51.3123 43.0653 51.7577 42.9265 52.2802C42.7877 52.8027 42.8604 53.3594 43.1285 53.8278ZM46.4772 55.5999C45.8846 55.9449 45.1979 56.089 44.5181 56.0109C43.8383 55.9328 43.2013 55.6366 42.7008 55.166C42.2003 54.6954 41.8627 54.0752 41.7378 53.3966C41.6128 52.718 41.7071 52.0168 42.0067 51.3963C42.3063 50.7758 42.7954 50.2687 43.402 49.9495C44.0087 49.6304 44.7009 49.5161 45.3768 49.6234C46.0527 49.7308 46.6765 50.0542 47.1566 50.5459C47.6367 51.0377 47.9476 51.6719 48.0437 52.3553L49.5526 52.4549C49.5593 52.4853 49.5666 52.5155 49.5744 52.5456L49.7591 53.2736L49.5143 53.7748L47.9584 53.6721C47.7415 54.4563 47.2318 55.1604 46.4772 55.5999ZM47.0513 60.6819C46.7832 60.2135 46.7106 59.6568 46.8494 59.1343C46.9881 58.6119 47.327 58.1664 47.7913 57.896C48.2557 57.6255 48.8075 57.5522 49.3255 57.6922C49.8434 57.8322 50.285 58.174 50.5531 58.6425C50.8212 59.1109 50.8938 59.6676 50.7551 60.1901C50.6163 60.7125 50.2774 61.158 49.8131 61.4284C49.3487 61.6989 48.7969 61.7722 48.2789 61.6322C47.761 61.4922 47.3194 61.1504 47.0513 60.6819ZM47.2044 56.8704C46.6124 57.2153 46.1456 57.7425 45.8727 58.3748C45.5997 59.007 45.5349 59.7109 45.6878 60.383C45.8407 61.0552 46.2032 61.6601 46.7222 62.1091C47.2411 62.558 47.889 62.8272 48.5708 62.8772C49.2526 62.9272 49.9323 62.7553 50.5102 62.3868C51.088 62.0183 51.5334 61.4726 51.7811 60.8299C52.0287 60.1871 52.0655 59.4812 51.8861 58.8158C51.7066 58.1504 51.3204 57.5605 50.7841 57.1329L57.8724 42.6153L56.8634 43.3549C55.4405 44.398 54.2415 45.7207 53.3384 47.2433L50.9801 51.2149C50.8917 51.3644 50.8336 51.53 50.8092 51.7023C50.7847 51.8746 50.7944 52.0501 50.8376 52.2186L51.1427 53.4174L49.6148 56.5452C48.8003 56.3278 47.9336 56.4447 47.2044 56.8704ZM53.21 55.1427L53.2281 55.1428L57.8169 55.0683C59.5756 55.0406 61.3106 54.6545 62.9175 53.933L64.057 53.4213L54.3647 52.7761L53.21 55.1427Z" fill="black"/>
</g>
<path d="M15.4313 16.5066C15.975 16.3108 16.5648 16.2859 17.1228 16.4354C17.6808 16.5849 18.1808 16.9016 18.5566 17.3437C18.9324 17.7858 19.1665 18.3325 19.2278 18.9116C19.2891 19.4907 19.1748 20.075 18.9 20.5872L27.6302 29.3948L26.4767 30.5576L17.7473 21.75C17.2395 22.0263 16.6606 22.1408 16.087 22.0786C15.5134 22.0163 14.9719 21.7802 14.5339 21.4013C14.0959 21.0225 13.782 20.5187 13.6336 19.9562C13.4851 19.3938 13.509 18.7993 13.7022 18.2508L15.5242 20.0905C15.6377 20.2051 15.7725 20.296 15.9209 20.358C16.0693 20.42 16.2283 20.452 16.3889 20.452C16.5495 20.4521 16.7085 20.4202 16.8569 20.3582C17.0053 20.2963 17.1401 20.2054 17.2537 20.0909C17.3673 19.9764 17.4574 19.8404 17.5189 19.6907C17.5804 19.5411 17.6121 19.3807 17.6121 19.2186C17.6121 19.0566 17.5805 18.8962 17.5191 18.7465C17.4577 18.5968 17.3676 18.4608 17.2541 18.3462L15.4313 16.5066ZM23.8826 18.0551L26.4767 16.6012L27.6302 17.7648L26.1889 20.3816L24.7476 20.6719L23.0185 22.4161L21.865 21.2533L23.5949 19.5091L23.8826 18.0551ZM18.4076 24.7426L19.5604 25.9054L15.2373 30.2665C15.0903 30.4152 14.8925 30.5015 14.6844 30.5078C14.4763 30.5141 14.2738 30.4398 14.1182 30.3003C13.9627 30.1607 13.866 29.9664 13.8479 29.7572C13.8298 29.548 13.8917 29.3398 14.021 29.1752L14.0837 29.1036L18.4076 24.7426Z" fill="black"/>
<defs>
<clipPath id="clip0_44_1954">
<rect width="19.5652" height="19.7368" fill="white" transform="translate(43.0435 13.8158)"/>
</clipPath>
<clipPath id="clip1_44_1954">
<rect width="19.6083" height="19.6941" fill="white" transform="matrix(0.864124 -0.503279 0.496728 0.867906 39.1304 49.3421)"/>
</clipPath>
</defs>
</svg>
